<mxfile host="app.diagrams.net" modified="2021-07-09T07:24:56.593Z" agent="5.0 (Windows NT 10.0; Win64; x64) AppleWebKit/537.36 (KHTML, like Gecko) Chrome/91.0.4472.124 Safari/537.36" etag="-LXuf_FHJG_7YmfbTDHo" version="14.8.2" type="github">
  <diagram id="GU0ITm2VL7E_ujcuSIuo" name="Page-1">
    <mxGraphModel dx="1634" dy="806" grid="1" gridSize="10" guides="1" tooltips="1" connect="1" arrows="1" fold="1" page="1" pageScale="1" pageWidth="827" pageHeight="1169" math="0" shadow="0">
      <root>
        <mxCell id="0" />
        <mxCell id="1" parent="0" />
        <mxCell id="dvv_ijS3tR0_LGeekCI6-1" value="" style="outlineConnect=0;dashed=0;verticalLabelPosition=bottom;verticalAlign=top;align=center;html=1;shape=mxgraph.aws3.sqs;fillColor=#D9A741;gradientColor=none;" vertex="1" parent="1">
          <mxGeometry x="130" y="210" width="70" height="80" as="geometry" />
        </mxCell>
        <mxCell id="dvv_ijS3tR0_LGeekCI6-3" style="edgeStyle=orthogonalEdgeStyle;rounded=0;orthogonalLoop=1;jettySize=auto;html=1;" edge="1" parent="1">
          <mxGeometry relative="1" as="geometry">
            <mxPoint x="165" y="140" as="sourcePoint" />
            <mxPoint x="165" y="200" as="targetPoint" />
          </mxGeometry>
        </mxCell>
        <mxCell id="dvv_ijS3tR0_LGeekCI6-2" value="" style="shape=message;html=1;whiteSpace=wrap;html=1;outlineConnect=0;" vertex="1" parent="1">
          <mxGeometry x="142.5" y="90" width="45" height="30" as="geometry" />
        </mxCell>
        <mxCell id="dvv_ijS3tR0_LGeekCI6-5" value="Retry Lambda &lt;br&gt;Function" style="outlineConnect=0;dashed=0;verticalLabelPosition=bottom;verticalAlign=top;align=center;html=1;shape=mxgraph.aws3.lambda_function;fillColor=#F58534;gradientColor=none;" vertex="1" parent="1">
          <mxGeometry x="390" y="240" width="69" height="72" as="geometry" />
        </mxCell>
        <mxCell id="dvv_ijS3tR0_LGeekCI6-6" value="&lt;font style=&quot;font-size: 9px&quot;&gt;Skill1 Trigger&lt;/font&gt;" style="outlineConnect=0;fontColor=#232F3E;gradientColor=none;fillColor=#BC1356;strokeColor=none;dashed=0;verticalLabelPosition=bottom;verticalAlign=top;align=center;html=1;fontSize=12;fontStyle=0;aspect=fixed;pointerEvents=1;shape=mxgraph.aws4.event_time_based;" vertex="1" parent="1">
          <mxGeometry x="280" y="80" width="40" height="40" as="geometry" />
        </mxCell>
        <mxCell id="dvv_ijS3tR0_LGeekCI6-10" value="&lt;font style=&quot;font-size: 9px&quot;&gt;Skill2 Trigger&lt;/font&gt;" style="outlineConnect=0;fontColor=#232F3E;gradientColor=none;fillColor=#BC1356;strokeColor=none;dashed=0;verticalLabelPosition=bottom;verticalAlign=top;align=center;html=1;fontSize=12;fontStyle=0;aspect=fixed;pointerEvents=1;shape=mxgraph.aws4.event_time_based;" vertex="1" parent="1">
          <mxGeometry x="360" y="80" width="40" height="40" as="geometry" />
        </mxCell>
        <mxCell id="dvv_ijS3tR0_LGeekCI6-11" value="&lt;font style=&quot;font-size: 9px&quot;&gt;Skill3 Trigger&lt;/font&gt;" style="outlineConnect=0;fontColor=#232F3E;gradientColor=none;fillColor=#BC1356;strokeColor=none;dashed=0;verticalLabelPosition=bottom;verticalAlign=top;align=center;html=1;fontSize=12;fontStyle=0;aspect=fixed;pointerEvents=1;shape=mxgraph.aws4.event_time_based;" vertex="1" parent="1">
          <mxGeometry x="440" y="80" width="40" height="40" as="geometry" />
        </mxCell>
        <mxCell id="dvv_ijS3tR0_LGeekCI6-12" value="&lt;font style=&quot;font-size: 9px&quot;&gt;Skill3 Trigger&lt;/font&gt;" style="outlineConnect=0;fontColor=#232F3E;gradientColor=none;fillColor=#BC1356;strokeColor=none;dashed=0;verticalLabelPosition=bottom;verticalAlign=top;align=center;html=1;fontSize=12;fontStyle=0;aspect=fixed;pointerEvents=1;shape=mxgraph.aws4.event_time_based;" vertex="1" parent="1">
          <mxGeometry x="520" y="80" width="40" height="40" as="geometry" />
        </mxCell>
        <mxCell id="dvv_ijS3tR0_LGeekCI6-13" value="" style="endArrow=classic;html=1;entryX=0.145;entryY=0.145;entryDx=0;entryDy=0;entryPerimeter=0;" edge="1" parent="1" target="dvv_ijS3tR0_LGeekCI6-5">
          <mxGeometry width="50" height="50" relative="1" as="geometry">
            <mxPoint x="300" y="140" as="sourcePoint" />
            <mxPoint x="380" y="250" as="targetPoint" />
            <Array as="points" />
          </mxGeometry>
        </mxCell>
        <mxCell id="dvv_ijS3tR0_LGeekCI6-15" value="" style="endArrow=classic;html=1;entryX=0.855;entryY=0.145;entryDx=0;entryDy=0;entryPerimeter=0;" edge="1" parent="1" target="dvv_ijS3tR0_LGeekCI6-5">
          <mxGeometry width="50" height="50" relative="1" as="geometry">
            <mxPoint x="540" y="150" as="sourcePoint" />
            <mxPoint x="500" y="220" as="targetPoint" />
          </mxGeometry>
        </mxCell>
        <mxCell id="dvv_ijS3tR0_LGeekCI6-16" value="" style="endArrow=classic;html=1;" edge="1" parent="1" target="dvv_ijS3tR0_LGeekCI6-5">
          <mxGeometry width="50" height="50" relative="1" as="geometry">
            <mxPoint x="460" y="150" as="sourcePoint" />
            <mxPoint x="440" y="450" as="targetPoint" />
          </mxGeometry>
        </mxCell>
        <mxCell id="dvv_ijS3tR0_LGeekCI6-17" value="" style="endArrow=classic;html=1;entryX=0.319;entryY=0.042;entryDx=0;entryDy=0;entryPerimeter=0;" edge="1" parent="1" target="dvv_ijS3tR0_LGeekCI6-5">
          <mxGeometry width="50" height="50" relative="1" as="geometry">
            <mxPoint x="380" y="150" as="sourcePoint" />
            <mxPoint x="390" y="260" as="targetPoint" />
          </mxGeometry>
        </mxCell>
        <mxCell id="dvv_ijS3tR0_LGeekCI6-18" value="" style="shape=flexArrow;endArrow=classic;html=1;" edge="1" parent="1">
          <mxGeometry width="50" height="50" relative="1" as="geometry">
            <mxPoint x="424" y="350" as="sourcePoint" />
            <mxPoint x="424" y="470" as="targetPoint" />
          </mxGeometry>
        </mxCell>
        <mxCell id="dvv_ijS3tR0_LGeekCI6-30" value="Notify Based on &lt;br&gt;Polling Result" style="edgeLabel;html=1;align=center;verticalAlign=middle;resizable=0;points=[];" vertex="1" connectable="0" parent="dvv_ijS3tR0_LGeekCI6-18">
          <mxGeometry x="-0.3143" relative="1" as="geometry">
            <mxPoint x="1" y="9" as="offset" />
          </mxGeometry>
        </mxCell>
        <mxCell id="dvv_ijS3tR0_LGeekCI6-19" value="CloudWatch" style="outlineConnect=0;dashed=0;verticalLabelPosition=bottom;verticalAlign=top;align=center;html=1;shape=mxgraph.aws3.cloudwatch;fillColor=#759C3E;gradientColor=none;" vertex="1" parent="1">
          <mxGeometry x="404.5" y="480" width="53.75" height="50" as="geometry" />
        </mxCell>
        <mxCell id="dvv_ijS3tR0_LGeekCI6-20" value="Alarm" style="shape=image;html=1;verticalAlign=top;verticalLabelPosition=bottom;labelBackgroundColor=#ffffff;imageAspect=0;aspect=fixed;image=https://cdn2.iconfinder.com/data/icons/app-user-interface-6/48/Notification-128.png" vertex="1" parent="1">
          <mxGeometry x="404.5" y="610" width="49" height="49" as="geometry" />
        </mxCell>
        <mxCell id="dvv_ijS3tR0_LGeekCI6-21" value="" style="endArrow=classic;html=1;entryX=0.5;entryY=0;entryDx=0;entryDy=0;" edge="1" parent="1" target="dvv_ijS3tR0_LGeekCI6-20">
          <mxGeometry width="50" height="50" relative="1" as="geometry">
            <mxPoint x="429.5" y="550" as="sourcePoint" />
            <mxPoint x="454.5" y="550" as="targetPoint" />
          </mxGeometry>
        </mxCell>
        <mxCell id="dvv_ijS3tR0_LGeekCI6-22" value="&lt;font style=&quot;font-size: 9px&quot;&gt;MS Teams&amp;nbsp;&lt;br&gt;Channel&lt;/font&gt;" style="shape=image;html=1;verticalAlign=top;verticalLabelPosition=bottom;labelBackgroundColor=#ffffff;imageAspect=0;aspect=fixed;image=https://cdn0.iconfinder.com/data/icons/logos-microsoft-office-365/128/Microsoft_Office-10-128.png" vertex="1" parent="1">
          <mxGeometry x="314.5" y="697" width="50" height="50" as="geometry" />
        </mxCell>
        <mxCell id="dvv_ijS3tR0_LGeekCI6-23" value="" style="html=1;verticalLabelPosition=bottom;align=center;labelBackgroundColor=#ffffff;verticalAlign=top;strokeWidth=2;strokeColor=#0080F0;shadow=0;dashed=0;shape=mxgraph.ios7.icons.mail;" vertex="1" parent="1">
          <mxGeometry x="434.5" y="540" width="30" height="16.5" as="geometry" />
        </mxCell>
        <mxCell id="dvv_ijS3tR0_LGeekCI6-24" value="Email" style="html=1;verticalLabelPosition=bottom;align=center;labelBackgroundColor=#ffffff;verticalAlign=top;strokeWidth=2;strokeColor=#0080F0;shadow=0;dashed=0;shape=mxgraph.ios7.icons.mail;" vertex="1" parent="1">
          <mxGeometry x="490" y="706.44" width="60" height="31.13" as="geometry" />
        </mxCell>
        <mxCell id="dvv_ijS3tR0_LGeekCI6-25" value="" style="endArrow=classic;html=1;exitX=0;exitY=0.75;exitDx=0;exitDy=0;" edge="1" parent="1" source="dvv_ijS3tR0_LGeekCI6-20">
          <mxGeometry width="50" height="50" relative="1" as="geometry">
            <mxPoint x="394.5" y="650" as="sourcePoint" />
            <mxPoint x="354.5" y="690" as="targetPoint" />
          </mxGeometry>
        </mxCell>
        <mxCell id="dvv_ijS3tR0_LGeekCI6-26" value="" style="endArrow=classic;html=1;exitX=1;exitY=0.75;exitDx=0;exitDy=0;" edge="1" parent="1" source="dvv_ijS3tR0_LGeekCI6-20">
          <mxGeometry width="50" height="50" relative="1" as="geometry">
            <mxPoint x="464.5" y="650" as="sourcePoint" />
            <mxPoint x="490" y="690" as="targetPoint" />
          </mxGeometry>
        </mxCell>
        <mxCell id="dvv_ijS3tR0_LGeekCI6-27" value="DeadLetter Queue&lt;br&gt;for Skills" style="outlineConnect=0;dashed=0;verticalLabelPosition=bottom;verticalAlign=top;align=center;html=1;shape=mxgraph.aws3.sqs;fillColor=#D9A741;gradientColor=none;" vertex="1" parent="1">
          <mxGeometry x="142.5" y="240" width="70" height="80" as="geometry" />
        </mxCell>
        <mxCell id="dvv_ijS3tR0_LGeekCI6-28" value="" style="shape=flexArrow;endArrow=classic;startArrow=classic;html=1;" edge="1" parent="1">
          <mxGeometry width="100" height="100" relative="1" as="geometry">
            <mxPoint x="230" y="280" as="sourcePoint" />
            <mxPoint x="380" y="280" as="targetPoint" />
          </mxGeometry>
        </mxCell>
        <mxCell id="dvv_ijS3tR0_LGeekCI6-29" value="Polling and Act" style="edgeLabel;html=1;align=center;verticalAlign=middle;resizable=0;points=[];" vertex="1" connectable="0" parent="dvv_ijS3tR0_LGeekCI6-28">
          <mxGeometry x="-0.1333" relative="1" as="geometry">
            <mxPoint as="offset" />
          </mxGeometry>
        </mxCell>
        <mxCell id="dvv_ijS3tR0_LGeekCI6-31" value="" style="endArrow=classic;html=1;" edge="1" parent="1">
          <mxGeometry width="50" height="50" relative="1" as="geometry">
            <mxPoint x="460" y="280" as="sourcePoint" />
            <mxPoint x="620" y="280" as="targetPoint" />
          </mxGeometry>
        </mxCell>
        <mxCell id="dvv_ijS3tR0_LGeekCI6-32" value="If lambda function &lt;br&gt;fails to execute" style="edgeLabel;html=1;align=center;verticalAlign=middle;resizable=0;points=[];" vertex="1" connectable="0" parent="dvv_ijS3tR0_LGeekCI6-31">
          <mxGeometry x="-0.2667" y="-2" relative="1" as="geometry">
            <mxPoint x="11" y="-2" as="offset" />
          </mxGeometry>
        </mxCell>
        <mxCell id="dvv_ijS3tR0_LGeekCI6-33" value="Alert" style="aspect=fixed;html=1;points=[];align=center;image;fontSize=12;image=img/lib/mscae/Notification.svg;" vertex="1" parent="1">
          <mxGeometry x="630" y="255" width="50" height="50" as="geometry" />
        </mxCell>
        <mxCell id="dvv_ijS3tR0_LGeekCI6-34" value="&lt;font style=&quot;font-size: 9px&quot;&gt;Message&lt;/font&gt;" style="text;html=1;align=center;verticalAlign=middle;resizable=0;points=[];autosize=1;strokeColor=none;" vertex="1" parent="1">
          <mxGeometry x="140" y="120" width="50" height="20" as="geometry" />
        </mxCell>
        <mxCell id="dvv_ijS3tR0_LGeekCI6-42" style="edgeStyle=orthogonalEdgeStyle;rounded=0;orthogonalLoop=1;jettySize=auto;html=1;exitX=0.5;exitY=1;exitDx=0;exitDy=0;entryX=0.5;entryY=0;entryDx=0;entryDy=0;" edge="1" parent="1" source="dvv_ijS3tR0_LGeekCI6-35" target="dvv_ijS3tR0_LGeekCI6-36">
          <mxGeometry relative="1" as="geometry" />
        </mxCell>
        <mxCell id="dvv_ijS3tR0_LGeekCI6-35" value="Lambda Gets Triggered with SQS Name/ARN" style="shape=process;whiteSpace=wrap;html=1;backgroundOutline=1;" vertex="1" parent="1">
          <mxGeometry x="117" y="1030" width="297" height="60" as="geometry" />
        </mxCell>
        <mxCell id="dvv_ijS3tR0_LGeekCI6-43" style="edgeStyle=orthogonalEdgeStyle;rounded=0;orthogonalLoop=1;jettySize=auto;html=1;exitX=0.5;exitY=1;exitDx=0;exitDy=0;entryX=0.5;entryY=0;entryDx=0;entryDy=0;" edge="1" parent="1" source="dvv_ijS3tR0_LGeekCI6-36" target="dvv_ijS3tR0_LGeekCI6-37">
          <mxGeometry relative="1" as="geometry" />
        </mxCell>
        <mxCell id="dvv_ijS3tR0_LGeekCI6-54" style="edgeStyle=orthogonalEdgeStyle;rounded=0;orthogonalLoop=1;jettySize=auto;html=1;exitX=1;exitY=0.5;exitDx=0;exitDy=0;startArrow=classic;startFill=1;" edge="1" parent="1" source="dvv_ijS3tR0_LGeekCI6-36" target="dvv_ijS3tR0_LGeekCI6-53">
          <mxGeometry relative="1" as="geometry" />
        </mxCell>
        <mxCell id="dvv_ijS3tR0_LGeekCI6-36" value="Lambda polls SQS Queue and Checks the number of Messages" style="shape=process;whiteSpace=wrap;html=1;backgroundOutline=1;" vertex="1" parent="1">
          <mxGeometry x="117" y="1130" width="297" height="60" as="geometry" />
        </mxCell>
        <mxCell id="dvv_ijS3tR0_LGeekCI6-44" style="edgeStyle=orthogonalEdgeStyle;rounded=0;orthogonalLoop=1;jettySize=auto;html=1;exitX=1;exitY=0.5;exitDx=0;exitDy=0;" edge="1" parent="1" source="dvv_ijS3tR0_LGeekCI6-37">
          <mxGeometry relative="1" as="geometry">
            <mxPoint x="410" y="1290" as="targetPoint" />
          </mxGeometry>
        </mxCell>
        <mxCell id="dvv_ijS3tR0_LGeekCI6-47" style="edgeStyle=orthogonalEdgeStyle;rounded=0;orthogonalLoop=1;jettySize=auto;html=1;entryX=0.5;entryY=0;entryDx=0;entryDy=0;" edge="1" parent="1" source="dvv_ijS3tR0_LGeekCI6-37" target="dvv_ijS3tR0_LGeekCI6-38">
          <mxGeometry relative="1" as="geometry" />
        </mxCell>
        <mxCell id="dvv_ijS3tR0_LGeekCI6-37" value="&amp;gt;50" style="rhombus;whiteSpace=wrap;html=1;" vertex="1" parent="1">
          <mxGeometry x="225.5" y="1250" width="80" height="80" as="geometry" />
        </mxCell>
        <mxCell id="dvv_ijS3tR0_LGeekCI6-49" style="edgeStyle=orthogonalEdgeStyle;rounded=0;orthogonalLoop=1;jettySize=auto;html=1;" edge="1" parent="1" source="dvv_ijS3tR0_LGeekCI6-38">
          <mxGeometry relative="1" as="geometry">
            <mxPoint x="265.5" y="1490" as="targetPoint" />
          </mxGeometry>
        </mxCell>
        <mxCell id="dvv_ijS3tR0_LGeekCI6-60" style="edgeStyle=orthogonalEdgeStyle;rounded=0;orthogonalLoop=1;jettySize=auto;html=1;startArrow=none;startFill=0;" edge="1" parent="1" source="dvv_ijS3tR0_LGeekCI6-38" target="dvv_ijS3tR0_LGeekCI6-59">
          <mxGeometry relative="1" as="geometry" />
        </mxCell>
        <mxCell id="dvv_ijS3tR0_LGeekCI6-61" value="Messages&lt;br&gt;&amp;nbsp;pushed&amp;nbsp;" style="edgeLabel;html=1;align=center;verticalAlign=middle;resizable=0;points=[];" vertex="1" connectable="0" parent="dvv_ijS3tR0_LGeekCI6-60">
          <mxGeometry x="-0.3426" y="-3" relative="1" as="geometry">
            <mxPoint x="18" y="-3" as="offset" />
          </mxGeometry>
        </mxCell>
        <mxCell id="dvv_ijS3tR0_LGeekCI6-38" value="Lambda picks up messages, added key retry_attempt and value as 1 added to previous value, and moves the message into Skills Queue" style="shape=process;whiteSpace=wrap;html=1;backgroundOutline=1;" vertex="1" parent="1">
          <mxGeometry x="115.5" y="1390" width="300" height="60" as="geometry" />
        </mxCell>
        <mxCell id="dvv_ijS3tR0_LGeekCI6-40" style="edgeStyle=orthogonalEdgeStyle;rounded=0;orthogonalLoop=1;jettySize=auto;html=1;entryX=0.534;entryY=0;entryDx=0;entryDy=0;entryPerimeter=0;" edge="1" parent="1" source="dvv_ijS3tR0_LGeekCI6-39" target="dvv_ijS3tR0_LGeekCI6-35">
          <mxGeometry relative="1" as="geometry" />
        </mxCell>
        <mxCell id="dvv_ijS3tR0_LGeekCI6-39" value="" style="outlineConnect=0;fontColor=#232F3E;gradientColor=none;fillColor=#BC1356;strokeColor=none;dashed=0;verticalLabelPosition=bottom;verticalAlign=top;align=center;html=1;fontSize=12;fontStyle=0;aspect=fixed;pointerEvents=1;shape=mxgraph.aws4.event_time_based;" vertex="1" parent="1">
          <mxGeometry x="236.5" y="870" width="78" height="78" as="geometry" />
        </mxCell>
        <mxCell id="dvv_ijS3tR0_LGeekCI6-41" value="Triggers" style="text;html=1;align=center;verticalAlign=middle;resizable=0;points=[];autosize=1;strokeColor=none;" vertex="1" parent="1">
          <mxGeometry x="245.5" y="970" width="60" height="20" as="geometry" />
        </mxCell>
        <mxCell id="dvv_ijS3tR0_LGeekCI6-45" value="No" style="text;html=1;align=center;verticalAlign=middle;resizable=0;points=[];autosize=1;strokeColor=none;" vertex="1" parent="1">
          <mxGeometry x="340" y="1270" width="30" height="20" as="geometry" />
        </mxCell>
        <mxCell id="dvv_ijS3tR0_LGeekCI6-46" value="No action, wait for next Trigger" style="whiteSpace=wrap;html=1;" vertex="1" parent="1">
          <mxGeometry x="400" y="1260" width="90" height="50" as="geometry" />
        </mxCell>
        <mxCell id="dvv_ijS3tR0_LGeekCI6-48" value="Yes" style="text;html=1;align=center;verticalAlign=middle;resizable=0;points=[];autosize=1;strokeColor=none;" vertex="1" parent="1">
          <mxGeometry x="265.5" y="1350" width="40" height="20" as="geometry" />
        </mxCell>
        <mxCell id="dvv_ijS3tR0_LGeekCI6-50" value="Messages get retried by skills" style="rounded=0;whiteSpace=wrap;html=1;" vertex="1" parent="1">
          <mxGeometry x="206" y="1500" width="120" height="60" as="geometry" />
        </mxCell>
        <mxCell id="dvv_ijS3tR0_LGeekCI6-53" value="Deadletter Queue" style="outlineConnect=0;fontColor=#232F3E;gradientColor=none;strokeColor=#ffffff;fillColor=#232F3E;dashed=0;verticalLabelPosition=middle;verticalAlign=bottom;align=center;html=1;whiteSpace=wrap;fontSize=10;fontStyle=1;spacing=3;shape=mxgraph.aws4.productIcon;prIcon=mxgraph.aws4.sqs;" vertex="1" parent="1">
          <mxGeometry x="560" y="1105" width="90" height="110" as="geometry" />
        </mxCell>
        <mxCell id="dvv_ijS3tR0_LGeekCI6-59" value="Skills Queue" style="outlineConnect=0;fontColor=#232F3E;gradientColor=none;strokeColor=#ffffff;fillColor=#232F3E;dashed=0;verticalLabelPosition=middle;verticalAlign=bottom;align=center;html=1;whiteSpace=wrap;fontSize=10;fontStyle=1;spacing=3;shape=mxgraph.aws4.productIcon;prIcon=mxgraph.aws4.sqs;" vertex="1" parent="1">
          <mxGeometry x="560" y="1365" width="90" height="110" as="geometry" />
        </mxCell>
      </root>
    </mxGraphModel>
  </diagram>
</mxfile>
